<svg xmlns="http://www.w3.org/2000/svg" width="100" height="100" viewBox="0 0 100 100" fill="none"><path d="M10 17v48.019h26.828v8.772h-7.66v4.968h26.543V73.79h-7.66v-8.772H74.88V17H10z" fill="#FFD67F"/><path d="M79.259 65.503l8.402-8.402-12.78-2.081-1.296-.211-14.667-2.387 2.051 12.598.176 1.08 2.452 15.064 8.402-8.403 10.744 10.746 7.26-7.26-10.744-10.744z" fill="#5AD6A0"/><path d="M74.88 65.02v-10l-1.295-.211-14.667-2.387 2.051 12.598h13.912z" fill="#06C16E"/><path d="M18 26h48.631v3.178H18V26zM18 33.945h48.631v3.178H18v-3.178zM18 41.89h29.179v3.178H18v-3.177z" fill="#FEEEC1"/></svg>