<svg id="Layer_1" data-name="Layer 1" xmlns="http://www.w3.org/2000/svg" viewBox="0 0 193.46 173.38"><defs><style>.cls-1{fill:#04425a;}.cls-2{font-size:69.07px;}.cls-2,.cls-3,.cls-4{fill:#68bd4e;}.cls-2,.cls-3{font-family:TrashHand;}.cls-3{font-size:43.24px;}</style></defs><title>arusha-logo</title><path class="cls-1" d="M117.22,13.31h2.69a.54.54,0,0,0,.35.09,10.61,10.61,0,0,1,2,.31,17,17,0,0,1,2.29.75A17.56,17.56,0,0,1,130.22,18q1.14,1.07,2.31,2.1c3.18,2.83,6.48,5.55,9.82,8.2,4.64,3.69,9.39,7.25,14.19,10.74,8,5.82,16.14,11.43,24.36,16.94l2.95,2a17.79,17.79,0,0,1,5.08,5.11c.38.57.78,1.12,1.19,1.67.95,1.25,1.92,2.5,2.88,3.75a17.5,17.5,0,0,1,3.48,7.93,7.81,7.81,0,0,1,.13,1.07c0,.72,0,1.43,0,2.15,0,.11,0,.21,0,.32a.61.61,0,0,0,.07.14v5.06a.24.24,0,0,0-.09.18,5.2,5.2,0,0,1-.08.69,16.12,16.12,0,0,1-3,6.39l-.27.34a.32.32,0,0,0-.07.3c0,.08.05.17.08.25a15.75,15.75,0,0,1,.63,4,17,17,0,0,1-.17,2.94,16,16,0,0,1-1.21,4.06c-.05.11-.09.23-.15.35s.1.16.14.24.24.36.35.54a20.55,20.55,0,0,1,2.92,9.51,16.64,16.64,0,0,1-.22,3.8,17.16,17.16,0,0,1-15,14.37c-.43,0-.86.09-1.29.1l-.27,0a.17.17,0,0,0-.18.21c0,.15,0,.31.09.47.12.56.25,1.12.37,1.68.79,3.6,1.65,7.19,2.61,10.75.84,3.12,1.75,6.21,2.81,9.25.33,1,.65,1.9.89,2.88a20,20,0,0,1,.57,3.93,17.47,17.47,0,0,1-.38,4.38,17.77,17.77,0,0,1-3.78,7.8,20.73,20.73,0,0,1-5,4.32,16,16,0,0,1-3.84,1.78,15.21,15.21,0,0,1-4.39.71h-.8a14.46,14.46,0,0,1-2.46-.26,19.87,19.87,0,0,1-4.2-1.31c-.47-.21-.38-.25-.76.15a16.17,16.17,0,0,1-6,4.06,16.46,16.46,0,0,1-7.71,1c-.48,0-1-.11-1.43-.19a17.9,17.9,0,0,1-2.3-.55,1,1,0,0,0-.58,0l-.52.14a14.32,14.32,0,0,1-2.76.38,27,27,0,0,1-3.82-.1,18.51,18.51,0,0,1-2.07-.32,17.16,17.16,0,0,1-6.42-2.76l-.31-.21a.41.41,0,0,0-.3-.09l-.86.06a15,15,0,0,1-2.84,0h-.11a.44.44,0,0,0-.35.09l-.51.4a23.27,23.27,0,0,1-5.77,3.3,25.4,25.4,0,0,1-3,.93,10.94,10.94,0,0,1-1.69.32l-.91.14s-.09,0-.14.06h-2.58a.94.94,0,0,0-.15-.06l-1-.14a10.47,10.47,0,0,1-1.12-.19,18,18,0,0,1-1.91-.53,19,19,0,0,1-6.31-3.38,19.78,19.78,0,0,1-1.79-1.63c-.07-.08-.13-.17-.25-.18l0,0a3.37,3.37,0,0,0-.32.19A21.61,21.61,0,0,1,83.55,184c-.43,0-.86-.05-1.29-.07a16.78,16.78,0,0,1-2.23-.28,19.62,19.62,0,0,1-2.4-.61,1.84,1.84,0,0,0-.52-.1,15,15,0,0,1-2.5-.34,14.41,14.41,0,0,1-5.13-2.26l-.31-.22c-.16-.11-.21-.11-.38,0l-.16.13a14.24,14.24,0,0,1-5.57,2.8c-.27.07-.53.13-.78.21a16.31,16.31,0,0,1-4.54.77,15.4,15.4,0,0,1-3.59-.27,19.69,19.69,0,0,1-5.78-2.11,3.06,3.06,0,0,0-.56-.31,4,4,0,0,0-.69-.13l-.21,0a20.66,20.66,0,0,1-4.2-1.31,3.49,3.49,0,0,0-.34-.15.19.19,0,0,0-.2,0l-.33.35a16,16,0,0,1-4.48,3.31,16.42,16.42,0,0,1-7.24,1.77,18.81,18.81,0,0,1-2-.09,21.1,21.1,0,0,1-2.38-.4A20.79,20.79,0,0,1,21,182.94a17.62,17.62,0,0,1-6.17-5.17,16.57,16.57,0,0,1-3.32-9.27,22.58,22.58,0,0,1,.1-3.49c.09-.89.22-1.78.39-2.66a34.76,34.76,0,0,1,1.11-4.15c.2-.58.39-1.15.61-1.72a1.15,1.15,0,0,0,0-.73l0-.11a12.83,12.83,0,0,1-.35-2.22,15.79,15.79,0,0,1,.22-4.23,16.29,16.29,0,0,1,2.13-5.48,16,16,0,0,1,2.66-3.3,1,1,0,0,0,.36-.58.88.88,0,0,1,0-.15l2.37-8.15a1.55,1.55,0,0,0,0-.21.14.14,0,0,0-.06-.14,1.21,1.21,0,0,0-.2-.09c-.35-.13-.71-.24-1.06-.38a21.76,21.76,0,0,1-6-3.61,22.08,22.08,0,0,1-5.32-6.49,20.42,20.42,0,0,1-2.32-7.5c0-.46-.1-.93-.13-1.39-.06-.7-.13-1.39-.16-2.09-.05-.95-.07-1.9-.1-2.85,0-.3,0-.61,0-.91a1.13,1.13,0,0,0-.11-.52,2.6,2.6,0,0,1-.1-.25,16.87,16.87,0,0,1-1.08-4.59A16.51,16.51,0,0,1,4.8,96c0-.25.1-.49.16-.74a.87.87,0,0,0,0-.67c-.09-.18-.16-.36-.24-.54a13.72,13.72,0,0,1-1.21-4.66,1.24,1.24,0,0,0,0-.27.45.45,0,0,0-.16-.27V86.88a.28.28,0,0,0,.17-.25c0-.25,0-.51.07-.75a14.38,14.38,0,0,1,.86-3.43c.1-.25.19-.5.29-.76a17.76,17.76,0,0,1,4.11-6.48,19.93,19.93,0,0,1,6.6-4.45l.39-.16a.18.18,0,0,0,.13-.21c0-.16,0-.32-.07-.48a15.56,15.56,0,0,1-.27-2.45,17.55,17.55,0,0,1,.28-3.69,17.05,17.05,0,0,1,2.58-6.44,17.26,17.26,0,0,1,4.82-4.85q5.65-3.82,11.23-7.76c6.48-4.56,12.88-9.22,19.14-14.08,4-3.11,8-6.29,11.78-9.63.57-.5,1.14-1,1.74-1.44a24.11,24.11,0,0,1,12.91-5,25.52,25.52,0,0,1,3.71,0c.43,0,.85.07,1.28.13s1.07.14,1.59.25A1.55,1.55,0,0,0,87,15l1-.14c.73-.09,1.46-.15,2.2-.17a28.6,28.6,0,0,1,3.81.19c1,.12,1.94.3,2.91.5l1.15.26a1.33,1.33,0,0,0,.79,0c.22-.07.45-.12.67-.18.82-.19,1.65-.35,2.49-.46.6-.07,1.2-.15,1.81-.18a27.26,27.26,0,0,1,4.14.09c.75.08,1.49.16,2.23.3a1.1,1.1,0,0,0,.93-.14A19.92,19.92,0,0,1,113.76,14a11.77,11.77,0,0,1,3.1-.62.59.59,0,0,0,.36-.09" transform="translate(-3.27 -13.31)"/><path class="cls-1" d="M118.36,20.56h2.74a.23.23,0,0,0,.09.19,1.86,1.86,0,0,0,.55.31,5.34,5.34,0,0,1,1.05.57,7.48,7.48,0,0,1,.88.72c.88.81,1.76,1.62,2.66,2.41,3.41,3,6.92,5.94,10.49,8.78,5.11,4.07,10.33,8,15.61,11.85,7.91,5.76,15.95,11.34,24.06,16.81l5.36,3.58a7,7,0,0,1,2.07,2.07c.35.55.73,1.08,1.11,1.59.65.87,1.31,1.73,2,2.59l1.71,2.22a7.41,7.41,0,0,1,.87,1.46,4.65,4.65,0,0,1,.38,1.37,8.68,8.68,0,0,1,0,2.16,1.36,1.36,0,0,0,.13.82.1.1,0,0,0,.05,0v3.42s-.08,0-.1,0c-.18.22-.38.43-.54.66a4.4,4.4,0,0,1-2.16,1.69l-2.2.8c-1.85.63-3.73,1.16-5.61,1.7l-3.5,1c-.49.15-1,.31-1.46.48a.39.39,0,0,0-.27.34c-.05.45-.1.9-.14,1.36a1.31,1.31,0,0,0,0,.28.18.18,0,0,0,.14.15h.23c.34,0,.68-.08,1-.14.84-.13,1.69-.25,2.54-.33a14.6,14.6,0,0,1,2.56,0,9.61,9.61,0,0,1,3.62,1.12,3.75,3.75,0,0,1,1.32,1.15,12.81,12.81,0,0,1,.86,1.35q.22.42.42.87A4.4,4.4,0,0,1,187,99a4.06,4.06,0,0,1-1.15,1.87l-1.28,1.22a5.64,5.64,0,0,1-.65.54,4.62,4.62,0,0,1-2.09.85q-.77.12-1.53.21c-.39,0-.79.1-1.19.13-.81,0-1.63.09-2.45.11s-1.82,0-2.73.13c-.69.07-.66.13-.78.68a30.2,30.2,0,0,0-.55,3.78c0,.28,0,.57,0,.85a2.94,2.94,0,0,0,.05.51.32.32,0,0,0,.2.26l.27.09a12.79,12.79,0,0,0,2.11.45c.55.07,1.1.09,1.65.15a27.12,27.12,0,0,0,2.85.07,1.06,1.06,0,0,0,.54-.16l.29-.18a5.38,5.38,0,0,1,3.72-.71,5,5,0,0,1,2.79,1.43,6,6,0,0,1,1.23,1.77,9.39,9.39,0,0,1,.79,2.49,6.83,6.83,0,0,1,.06,2.21,6.28,6.28,0,0,1-1.5,3.21,5.47,5.47,0,0,1-2.07,1.48,6,6,0,0,1-2.22.43h-3.25c-.64,0-1.29,0-1.94,0-1.23-.08-2.46-.12-3.69-.29-.73-.09-1.47-.16-2.2-.27-1.06-.16-2.1-.36-3.14-.6l-.39-.07a.33.33,0,0,0-.31.09l-.21.19a6.47,6.47,0,0,1-1.49,1.05c-.32.17-.65.31-1,.45l-.47.2a.27.27,0,0,0-.1.13.18.18,0,0,0,.07.09l.25.12a7.37,7.37,0,0,1,2,1.42,10.1,10.1,0,0,1,1.53,2,12.66,12.66,0,0,1,1.28,3,21.53,21.53,0,0,1,.48,2.52c.2,1.39.4,2.78.56,4.18,0,.28.08.56.14.84.18.88.36,1.75.55,2.62.84,3.73,1.71,7.44,2.69,11.13.78,2.92,1.6,5.83,2.53,8.7.42,1.26.84,2.52,1.27,3.78a11,11,0,0,1,.5,2.34,6.53,6.53,0,0,1-.12,1.87,6.36,6.36,0,0,1-1.28,2.7,8.9,8.9,0,0,1-2.82,2.36,4.1,4.1,0,0,1-2.87.43,7.71,7.71,0,0,1-3.43-1.58,8.93,8.93,0,0,1-2.31-2.87,11.53,11.53,0,0,1-1-2.77c-.21-.93-.39-1.86-.58-2.79-.23-1.14-.49-2.27-.8-3.38a2.13,2.13,0,0,0-.11-.33.24.24,0,0,0-.22-.15,4.35,4.35,0,0,0-.51,0l-.85.08a7,7,0,0,0-1.56.33.49.49,0,0,0-.33.35c0,.09,0,.19-.08.28-.48,1.62-.85,3.27-1.23,4.92s-.79,3.32-1.27,5a35,35,0,0,1-1.22,3.62,6.11,6.11,0,0,1-.59,1.17,4.74,4.74,0,0,1-3.86,2.18,7,7,0,0,1-3.22-.61,7.11,7.11,0,0,1-3.18-2.42.63.63,0,0,0-.12-.11s-.08,0-.1,0a2.83,2.83,0,0,0-.2.28,5.41,5.41,0,0,1-.81,1.09,4.63,4.63,0,0,1-2.28,1.34,6.35,6.35,0,0,1-1.3.17,12,12,0,0,1-2.32-.19,6.06,6.06,0,0,1-2.8-1.21,8.51,8.51,0,0,1-2.74-3.64,11.59,11.59,0,0,1-.77-3.72,24,24,0,0,1,0-2.68c.07-1.22.14-2.43.16-3.65,0-.83.11-1.66.18-2.5s.16-1.55.24-2.32a.14.14,0,0,0,0-.11s-.07-.07-.13-.13a2,2,0,0,0-.12.34c0,.15,0,.3-.08.45-.16,1-.33,1.95-.42,2.93,0,.4-.08.8-.13,1.19-.1.79-.18,1.59-.21,2.39,0,.15,0,.3,0,.45-.1,1.56-.18,3.11-.23,4.67,0,.36,0,.72-.07,1.08a2.46,2.46,0,0,1-1.26,1.93l-.31.16a11,11,0,0,1-1.92.69,8.29,8.29,0,0,1-1.29.22,8.79,8.79,0,0,1-2.89-.22,8,8,0,0,1-3.19-1.57l-.23-.17a.15.15,0,0,0-.24,0,2.11,2.11,0,0,0-.16.3,9.16,9.16,0,0,1-1.89,2.69,23.09,23.09,0,0,1-2.55,2.18A12.28,12.28,0,0,1,112,179a2,2,0,0,0-.31.13.35.35,0,0,0-.18.33h-3.65a.92.92,0,0,0-.61-.47,7.82,7.82,0,0,1-2.53-1.5,5.44,5.44,0,0,1-1.49-2,5.28,5.28,0,0,1-.39-1.3,5.5,5.5,0,0,1,.89-3.91q.39-.57.81-1.11a4.4,4.4,0,0,1,2.12-1.47,3.73,3.73,0,0,0,.44-.14.42.42,0,0,0,.24-.23,2.15,2.15,0,0,0,.1-.27,10.57,10.57,0,0,0,.51-2.79,4.83,4.83,0,0,0,0-.85,14.84,14.84,0,0,0-.36-2.08,30.77,30.77,0,0,0-1.27-3.72c-.71-1.74-1.53-3.43-2.4-5.1s-1.78-3.57-2.53-5.42a2,2,0,0,0-.13-.25.08.08,0,0,0-.09,0,.1.1,0,0,0-.08.06,3.66,3.66,0,0,0-.15.43c-.11.37-.21.73-.31,1.1-.74,2.61-1.47,5.23-2.15,7.86-.25,1-.48,2-.74,3A35.72,35.72,0,0,1,91.41,172,13,13,0,0,1,89.57,174a10.49,10.49,0,0,1-2.77,1.78,9.56,9.56,0,0,1-5.17.77,7.71,7.71,0,0,1-3-1.06l-.33-.21a.42.42,0,0,0-.33,0l-.83.2a2.71,2.71,0,0,1-2.23-.4,2.83,2.83,0,0,1-.28-.2c-.62-.5-1.24-1-1.85-1.51-1.83-1.56-3.55-3.22-5.21-4.94-1.8-1.88-3.59-3.78-5.38-5.67l-.44-.45-.13-.1s-.14,0-.15,0c0,.23-.09.45-.11.67,0,.69-.09,1.37-.14,2.05s-.08,1.29-.15,1.93c-.09.8-.2,1.59-.29,2.38a33.49,33.49,0,0,1-.86,4.42c-.1.38-.23.76-.35,1.14a.93.93,0,0,1-.31.47,3.19,3.19,0,0,1-1.76.86,2.18,2.18,0,0,0-.61.15,5.44,5.44,0,0,1-1.64.43,4,4,0,0,1-1.14,0,9.69,9.69,0,0,1-1.21-.29,7.13,7.13,0,0,1-3-1.83c-.22-.23-.42-.49-.62-.74a2.78,2.78,0,0,0-.21-.27.2.2,0,0,0-.21-.06l-.48.19a4.13,4.13,0,0,1-2.41.17,7.87,7.87,0,0,1-4.64-2.89,10.69,10.69,0,0,1-1.67-3.1,17.12,17.12,0,0,1-.68-2.76c-.29-1.55-.64-3.09-1-4.61,0-.11-.06-.22-.1-.33a.26.26,0,0,0-.26-.17h-.17c-.7.08-1.4.15-2.1.25a3,3,0,0,0-.7.22.39.39,0,0,0-.23.24l-.07.21c-.31,1.22-.63,2.43-.93,3.65-.38,1.55-.74,3.1-1.13,4.65A47.26,47.26,0,0,1,30.79,174a12.49,12.49,0,0,1-.57,1.3,4.76,4.76,0,0,1-2.8,2.37,5.54,5.54,0,0,1-2.65.16,8.57,8.57,0,0,1-3.32-1.3,6.47,6.47,0,0,1-1.18-1,5.37,5.37,0,0,1-1.46-3.5,12.9,12.9,0,0,1,.15-2.56,21.38,21.38,0,0,1,.7-3c.35-1.18.79-2.34,1.25-3.48s.9-2.3,1.26-3.48a5.7,5.7,0,0,0,.16-.55.34.34,0,0,0-.07-.32l-.27-.29a5.59,5.59,0,0,1-.73-1,3.85,3.85,0,0,1-.48-2.37,4.68,4.68,0,0,1,2.67-3.79l.52-.22.32-.14a.43.43,0,0,0,.22-.24l.12-.32c.18-.58.38-1.16.56-1.74.76-2.43,1.45-4.87,2.17-7.32s1.43-4.92,2.17-7.38,1.49-4.58,2.39-6.82a6.52,6.52,0,0,1,.43-.93,4.64,4.64,0,0,1,2.26-2.09l.26-.12.15-.07a.17.17,0,0,0,.09-.23,2.73,2.73,0,0,0-.39-.55,1.05,1.05,0,0,0-.46-.05l-2.28,0c-.34,0-.69,0-1,0-.87-.06-1.74-.11-2.61-.2-.49,0-1-.08-1.48-.14l-2-.29c-1.18-.18-2.35-.43-3.51-.72a10.74,10.74,0,0,1-3.57-1.6,11.49,11.49,0,0,1-3.3-3.5,9.42,9.42,0,0,1-1.33-4.25c-.06-.7-.11-1.41-.16-2.11a48.55,48.55,0,0,1-.1-5.12c0-.57,0-1.14.07-1.71a.83.83,0,0,0-.2-.64c-.07-.08-.14-.18-.21-.27a5.4,5.4,0,0,1-1.09-2.65,4.78,4.78,0,0,1,1.76-4.35l.4-.32a.45.45,0,0,0,.22-.38c0-.57.08-1.13.13-1.7a.46.46,0,0,0-.29-.5c-.17-.09-.33-.19-.49-.29a6.12,6.12,0,0,1-2-2,1.22,1.22,0,0,1-.12-.19.5.5,0,0,0-.43-.24l-.74,0V84.77a1.15,1.15,0,0,0,.45,0,.61.61,0,0,0,.65-.44.8.8,0,0,1,.08-.16,6.94,6.94,0,0,1,1.31-1.78,8.78,8.78,0,0,1,2.78-1.85l2.06-.84c1.11-.45,2.21-.91,3.3-1.41.31-.15.63-.27.94-.4a38.74,38.74,0,0,1,4.82-1.57c2.07-.55,4.15-1.07,6.23-1.59a11.12,11.12,0,0,1,1.4-.26,8.15,8.15,0,0,1,2.83.18,12.46,12.46,0,0,1,2.84,1,19.82,19.82,0,0,1,1.75,1,1.06,1.06,0,0,0,.48.22l.62-.22a7.7,7.7,0,0,1,2.5-.52,6.89,6.89,0,0,1,3.31.71,8.79,8.79,0,0,1,2,1.34,11.62,11.62,0,0,1,1.2,1.23,1.8,1.8,0,0,0,.19.2.15.15,0,0,0,.2,0,3.87,3.87,0,0,0,.21-.34l1.1-1.93c.62-1.07,1.29-2.11,2-3.11q.81-1.11,1.71-2.13a3.07,3.07,0,0,1,1.52-1,9.87,9.87,0,0,1,2.64-.4c.52,0,1,0,1.54,0a5.42,5.42,0,0,1,1.94.43,7.1,7.1,0,0,1,1.13.66l.37.27a.37.37,0,0,0,.32.06A10.91,10.91,0,0,1,69.38,72c.79,0,1.58.15,2.37.27a29.34,29.34,0,0,1,4.81,1.17c.22.07.43.15.65.21a.29.29,0,0,0,.16,0,.29.29,0,0,0-.13-.19l-.93-.66q-1.52-1.06-2.94-2.25A26.39,26.39,0,0,1,69.85,67a25.77,25.77,0,0,1-2-3c-.56-1-1.12-1.94-1.69-2.9-.33-.56-.68-1.1-1-1.64a12.21,12.21,0,0,0-1.46-1.75l-.35-.29a.2.2,0,0,0-.21,0l-.41.2c-.86.45-1.7.94-2.52,1.46l-2,1.26a5.37,5.37,0,0,1-2.28.83,4.49,4.49,0,0,1-1.37,0,5.7,5.7,0,0,1-3.94-2.66l-.17-.3a1.24,1.24,0,0,0-.1-.2c-.14-.27-.22-.29-.48-.09l-.14.1L47.15,59.9l-6.88,5.17a42,42,0,0,1-4.53,3,33.34,33.34,0,0,1-5.1,2.39,6.48,6.48,0,0,1-1.49.36,4.73,4.73,0,0,1-1.76-.1,5.11,5.11,0,0,1-2.93-1.85,6,6,0,0,1-1.34-4.46,5.69,5.69,0,0,1,2.4-4.22L26,59.8q8.67-5.89,17.2-12c6-4.33,12-8.75,17.79-13.34,3.29-2.61,6.55-5.26,9.71-8,.62-.54,1.24-1.07,1.87-1.59a13.11,13.11,0,0,1,4.24-2.29,14.16,14.16,0,0,1,2.9-.56,13.15,13.15,0,0,1,4,.23c.43.1.85.21,1.27.33a3.25,3.25,0,0,0,1.64.07l.39-.08a14.5,14.5,0,0,1,2.07-.38,15.07,15.07,0,0,1,4.59.27c.87.18,1.74.38,2.61.57a15.65,15.65,0,0,0,2.14.35,5.6,5.6,0,0,0,2.19-.23c.38-.13.76-.24,1.15-.35a14.25,14.25,0,0,1,4.21-.61,17.45,17.45,0,0,1,3.45.39c.71.14,1.42.27,2.13.34a7.51,7.51,0,0,0,2.5-.14,8.17,8.17,0,0,0,2.31-1,11,11,0,0,1,1.35-.73,1.47,1.47,0,0,0,.66-.52m.88,132.89c0-.09,0-.16.05-.24.11-.82.22-1.65.32-2.48l.27-2.27c.11-.88.21-1.77.32-2.66.06-.52.12-1.05.17-1.58s.11-1.06.16-1.59.1-1.14.14-1.7c.07-1.07.14-2.13.2-3.19s.11-2.32.09-3.48c0-.07,0-.15,0-.22a3.75,3.75,0,0,1,.44-1.64,4.46,4.46,0,0,1,2.5-2.21l.38-.13a.72.72,0,0,0,.37-.25l.14-.18a2.49,2.49,0,0,1,3.34-.4,4.34,4.34,0,0,1,.54.51c.57.62.4.47,1.14.67a7.15,7.15,0,0,1,1.17.43,5,5,0,0,1,2.77,3.16,15.41,15.41,0,0,1,.68,3.63,24.37,24.37,0,0,1-.15,4.27c-.11,1-.26,2-.38,2.94,0,.3,0,.6-.06.9,0,0,0,0,.07.06a0,0,0,0,0,0,0c0-.16.1-.32.14-.49.13-.67.24-1.34.38-2,.29-1.49.51-3,.74-4.49.14-.92.27-1.84.4-2.77s.27-2.07.4-3.1.24-2,.37-3.06a7.9,7.9,0,0,1,.55-2,5.41,5.41,0,0,1,2.05-2.46,2.83,2.83,0,0,0,.28-.2.09.09,0,0,0,0-.14l-.63-.26a6.82,6.82,0,0,1-4-4.15,7.45,7.45,0,0,1-.45-2.29,15.64,15.64,0,0,1,.06-2.56c.13-1.07.29-2.14.44-3.22a23.26,23.26,0,0,0,.2-2.89.88.88,0,0,0,0-.17s0-.05-.08-.07,0,0-.05,0a1.22,1.22,0,0,0-.31.33,21.16,21.16,0,0,1-1.79,2,17.66,17.66,0,0,1-8.19,4.63,13.33,13.33,0,0,1-2.36.37,9.39,9.39,0,0,1-1.59-.05,13,13,0,0,1-2.23-.46,13.29,13.29,0,0,1-3.39-1.59,20.76,20.76,0,0,1-2.89-2.31l-.34-.31a.18.18,0,0,0-.21,0c-.22.15-.44.29-.66.45l-7.62,5.41c-1.12.79-2.25,1.56-3.41,2.28A41.33,41.33,0,0,1,95,122.81c-.24.11-.48.21-.73.3a5,5,0,0,1-4.68-.57,5.85,5.85,0,0,1-1.31-1.17c-.23-.28-.44-.57-.66-.86-.37-.48-.74-1-1.12-1.44a3.11,3.11,0,0,1-.7-2c0-1.43,0-2.85,0-4.28,0-.44,0-.87,0-1.31,0-1.14.12-2.28.16-3.42,0-1,.1-1.93.16-2.9.08-1.33.19-2.65.29-4l.21-2.44v-.12a.16.16,0,0,0-.05-.08.09.09,0,0,0-.1,0l-.28.42c-.42.75-.87,1.47-1.35,2.18a15.23,15.23,0,0,1-1.81,2.2c-.88.89-1.77,1.77-2.66,2.66a10.43,10.43,0,0,1-1.49,1.24,15.51,15.51,0,0,1-1.51.91,3,3,0,0,1-.31.15.48.48,0,0,0-.29.51c0,.11,0,.22,0,.34,0,.68,0,1.37.09,2s.09,1.4.14,2.1.13,1.41.16,2.11a22.82,22.82,0,0,1-.07,3.41,17,17,0,0,1-.48,2.75,11.49,11.49,0,0,1-2.5,4.68,6.68,6.68,0,0,1-1.86,1.49c-.55.3-.4.29-.94,0-.33-.14-.65-.3-1-.45l-.26-.1s-.07,0-.09,0,0,0,0,0l.35.45a15.88,15.88,0,0,1,2.72,4.52l.08.21c0,.05,0,.1.07.16s.1.1.13.08.08,0,.09-.06.17-.33.26-.5a6.19,6.19,0,0,1,2.83-2.8,7.05,7.05,0,0,1,5.85-.08,23.24,23.24,0,0,1,2.48,1.28,3.11,3.11,0,0,1,.38.25,2.36,2.36,0,0,1,1,1.8c.06.93.1,1.86.07,2.79-.06,2.25-.06,4.49-.16,6.73-.06,1.39-.11,2.77-.16,4.16,0,.06,0,.11,0,.17-.06,1.48-.12,3-.17,4.44,0,.16,0,.31,0,.46a.36.36,0,0,0,0,.11l0,0h0a3.94,3.94,0,0,0,.23-.88c.35-1.62.68-3.24,1-4.85a50.55,50.55,0,0,1,1.36-5,29.31,29.31,0,0,1,1.38-3.62,6.68,6.68,0,0,0,.55-1.85c.13-.82.24-1.65.36-2.48a16.73,16.73,0,0,1,.57-2.5,7.48,7.48,0,0,1,1.1-2.23,6,6,0,0,1,2.63-2,7,7,0,0,1,2.9-.48c.25,0,.49.06.74.08a6.68,6.68,0,0,1,1.17.21,7.61,7.61,0,0,1,1.45.52l.36.16a.2.2,0,0,0,.21,0c.09-.12.18-.24.26-.37a15.45,15.45,0,0,1,1.54-2,14,14,0,0,1,5.43-3.66,9.48,9.48,0,0,1,3.57-.64h.45a9.62,9.62,0,0,1,3,.48,8,8,0,0,1,3.64,2.36A6,6,0,0,1,121,125a4.92,4.92,0,0,1,.26,1.9,5.75,5.75,0,0,1-1.57,3.59,8.6,8.6,0,0,1-2.64,1.86,4.35,4.35,0,0,1-1.88.4h-.57a.44.44,0,0,0-.39.19l-.18.23a8.48,8.48,0,0,0-1.06,2.13,10,10,0,0,0-.44,3.88,8.54,8.54,0,0,0,.18,1,6,6,0,0,0,.52,1.38l3.81,7.72c.65,1.33,1.33,2.65,1.93,4a.71.71,0,0,0,.08.15s.1,0,.16.07m-.33-72.73a3,3,0,0,0-.15-.31c-.9-1.58-1.79-3.18-2.74-4.74a12.91,12.91,0,0,0-3.26-3.61l-3.2-2.48c-.47-.36-.92-.73-1.36-1.12a10.89,10.89,0,0,1-3-4.27,17.33,17.33,0,0,1-.67-2.23c-.19-.82-.37-1.63-.56-2.45a4.91,4.91,0,0,0-1-2.06,17.27,17.27,0,0,0-4.37-3.8c-.76-.47-.6-.5-1.26.16a19.58,19.58,0,0,0-3,3.82,31.53,31.53,0,0,0-1.9,3.76C92,62.6,91.48,63.82,91,65c-.62,1.58-1.24,3.15-1.94,4.69a36.19,36.19,0,0,1-1.75,3.39c-.15.24-.3.49-.47.72A5.36,5.36,0,0,1,83.5,76a7.11,7.11,0,0,1-.79.1l-.23,0a.26.26,0,0,0-.12.09s0,.08,0,.1l.72.56a19.49,19.49,0,0,1,2.28,2A21.74,21.74,0,0,1,87,80.72a3.19,3.19,0,0,0,.31.33s0,0,0,0a.27.27,0,0,0,.08-.07.36.36,0,0,0,0-.11,33.7,33.7,0,0,0-.2-3.76,14.71,14.71,0,0,1-.06-1.62,9.67,9.67,0,0,1,1.37-1.56l.18-.15a6.48,6.48,0,0,1,3.46-1.47,8,8,0,0,1,3.59.37,5.65,5.65,0,0,1,2.94,2.24,5.31,5.31,0,0,1,.92,2.48c0,.4.06.8.07,1.2,0,1.27,0,2.55,0,3.82,0,.51,0,1,0,1.54s0,1.25-.07,1.88c0,.36,0,.72,0,1.08-.08,1.29-.08,2.58-.17,3.87-.08,1-.11,2-.16,3,0,.64-.07,1.29-.1,1.94,0,.15,0,.3,0,.45-.06,1-.12,1.9-.17,2.85-.07,1.42-.13,2.84-.19,4.27,0,.53,0,1.06,0,1.59a.9.9,0,0,0,0,.23s.09.09.13.08a1.31,1.31,0,0,0,.44-.26c1.14-.78,2.32-1.52,3.53-2.2.21-.12.43-.24.65-.34a3.94,3.94,0,0,1,1.26-.35c.7-.07,1.4-.15,2.09-.25.49-.07.52,0,.53-.61s0-1.4.11-2.1A24.94,24.94,0,0,1,108,96a31.07,31.07,0,0,1,2.45-6.61,24.6,24.6,0,0,1,1.66-2.85,19.58,19.58,0,0,1,3.29-3.69A10.09,10.09,0,0,1,118.58,81a1.36,1.36,0,0,0,.21-.1,1.67,1.67,0,0,0,.12-.13m19.68-17a5.82,5.82,0,0,1-.49,2.42,5.58,5.58,0,0,1-3.83,3.29,4.33,4.33,0,0,1-1.07.16,5.46,5.46,0,0,1-2.63-.63c-.16-.07-.3-.17-.45-.25l-.21-.08a.13.13,0,0,0-.14.07,8.66,8.66,0,0,0-.1,1.25c0,1.16,0,2.32,0,3.47.06,1.41.06,2.82.06,4.22a14,14,0,0,1-.09,1.59,5.72,5.72,0,0,1-1.13,2.83c-.17.22-.37.43-.56.65,0,0-.09.11-.14.17a.16.16,0,0,0,0,.16l.25.12,1.08.37c.48.17,1,.34,1.44.53A11.39,11.39,0,0,1,135,87.15l.07.09.08.07s.09,0,.1,0a.21.21,0,0,0,.11-.12l.12-1.65c.05-.66.09-1.32.16-2,.09-.85.2-1.7.29-2.55s.22-1.62.36-2.42a7.4,7.4,0,0,1,1.58-3.43,8.11,8.11,0,0,1,2.64-2,11.11,11.11,0,0,1,2.86-.92,18.88,18.88,0,0,1,3.35-.3c.53,0,1.06,0,1.59.06a8,8,0,0,1,1.3.16,11.25,11.25,0,0,1,5.4,2.67,16.06,16.06,0,0,1,3.78,4.88,14.85,14.85,0,0,1,.79,1.83c0,.11.08.21.13.32a.16.16,0,0,0,.24.05l.28-.2a9.12,9.12,0,0,1,2.18-1.21l1.42-.58c.95-.4,1.91-.77,2.84-1.19s2-.88,3.06-1.25a1,1,0,0,0,.15-.07.14.14,0,0,0,0-.16l-.28-.19-3-1.7c-3.23-1.82-6.45-3.65-9.74-5.35a82.18,82.18,0,0,1-7.89-4.67l-6.28-4.24c-1.8-1.22-3.61-2.4-5.47-3.51a1.19,1.19,0,0,0-.25-.13.11.11,0,0,0-.1,0,.1.1,0,0,0,0,.1c.07.2.14.39.22.59a31.4,31.4,0,0,1,1.35,3.93,7.9,7.9,0,0,1,.23,1.65m-89.77,80.6c0-1.43.08-2.86.13-4.28,0-.1,0-.19,0-.29,0-.79.12-1.59.15-2.39,0-1.1.18-2.19.29-3.29.09-.91.21-1.81.32-2.72a17.16,17.16,0,0,1,.34-1.9,7.28,7.28,0,0,1,2.43-3.91,8.42,8.42,0,0,1,1.21-.84,11,11,0,0,1,2.7-1,17.57,17.57,0,0,1,3.39-.43,16,16,0,0,1,2.39.07,13,13,0,0,1,1.52.25c.24,0,.47.12.71.19l.65.21.16,0a.27.27,0,0,0,.16,0c.06,0,0-.1,0-.14a6.19,6.19,0,0,1-.83-2.65c0-.45-.09-.9-.15-1.35-.18-1.27-.25-2.54-.33-3.81,0-.61-.07-1.21-.1-1.82a.43.43,0,0,0,0-.11.13.13,0,0,0-.17-.09l-.51.25a4.47,4.47,0,0,1-2.44.45c-.32,0-.64-.07-.95-.13a8.75,8.75,0,0,1-4.72-2.48,10.52,10.52,0,0,1-1.82-2.47l-.54-1.07-.3-.62c0-.08-.09-.16-.14-.24a.12.12,0,0,0-.22,0c-.12.26-.25.51-.35.78-.62,1.53-1.18,3.09-1.74,4.64-.79,2.18-1.64,4.33-2.61,6.44a32.28,32.28,0,0,1-2.28,4.21c-.15.24-.31.48-.47.71a2.72,2.72,0,0,1-1.42,1,2.88,2.88,0,0,1-.72.15l-.23,0c-.21,0-.25.13-.11.31l.24.31a10.31,10.31,0,0,1,1.15,1.84,12.65,12.65,0,0,1,1.09,3.28c.11.56.18,1.13.26,1.69.17,1.11.34,2.22.46,3.33a18,18,0,0,0,.34,2.08c.21.95.43,1.89.63,2.84.66,3.07,1.41,6.11,2.19,9.14a3,3,0,0,0,.11.32s.06,0,.09,0,0,0,0-.05c0-.19,0-.38,0-.56v-5.87m98,9.23c.05,0,.1,0,.12,0l.11-.19a4.81,4.81,0,0,1,2.68-2.43l.32-.12a.57.57,0,0,0,.28-.27c0-.09.07-.18.1-.27.12-.36.23-.72.35-1.08,1-3.17,1.93-6.36,2.85-9.55.66-2.32,1.32-4.64,2.06-6.93.62-1.94,1.28-3.86,2-5.74a6.7,6.7,0,0,1,.45-1,4.85,4.85,0,0,1,2.28-2.08l.42-.18a.31.31,0,0,0,.09-.07s0-.08,0-.1a2.42,2.42,0,0,0-.33-.31c-1.27-1-2.48-2.07-3.66-3.17q-2.28-2.14-4.43-4.43l-4.1-4.36c-.15-.15-.29-.3-.45-.44a.13.13,0,0,0-.21.07c0,.15,0,.3-.07.46l-.12,1.64c-.08,1.25-.19,2.5-.34,3.75s-.32,2.56-.59,3.82c-.16.75-.34,1.48-.54,2.22a2.74,2.74,0,0,1-1.33,1.7,1,1,0,0,0-.24.15s0,.07,0,.1a0,0,0,0,0,0,0l.55.15a5.81,5.81,0,0,1,2.58,1.39,4.85,4.85,0,0,1,1.62,4c-.06.91-.09,1.83-.14,2.74,0,.7-.09,1.4-.14,2.1,0,.45-.09.91-.13,1.36l-.18,1.76c-.06.53-.11,1.06-.17,1.58-.09.85-.19,1.7-.29,2.55s-.19,1.51-.29,2.26-.18,1.47-.28,2.21-.19,1.43-.29,2.14-.19,1.28-.27,1.92c-.11.83-.21,1.66-.32,2.49v.17m-101.63-61a1.36,1.36,0,0,0-.11-.25c-.16-.28-.32-.56-.5-.83a37.13,37.13,0,0,0-4.08-5.19c0-.06-.11-.11-.16-.16a.3.3,0,0,0-.32-.08l-.48.17c-2,.75-4.14,1.39-6.24,2-1.55.43-3.11.87-4.64,1.37l-1.08.37a.39.39,0,0,0-.28.33,12.79,12.79,0,0,0-.14,1.53s0,.07,0,.11a.17.17,0,0,0,.14.15,1.9,1.9,0,0,0,.34,0l.9-.13c.92-.14,1.84-.27,2.77-.35a11.27,11.27,0,0,1,3.84.29,8.76,8.76,0,0,1,2.26.93A3.48,3.48,0,0,1,38.67,94c.23.39.49.77.73,1.16A5.58,5.58,0,0,1,40,96.38a4.5,4.5,0,0,1,.1,2.36A4.1,4.1,0,0,1,38.74,101c-.37.33-.72.67-1.06,1a5.59,5.59,0,0,1-.74.63,4.78,4.78,0,0,1-2.08.86c-.58.09-1.17.16-1.75.24s-1.14.09-1.7.14a23,23,0,0,1-2.62.09,21,21,0,0,0-2.1.15.86.86,0,0,0-.17,0,.32.32,0,0,0-.27.26c-.08.31-.15.63-.21.94a25.79,25.79,0,0,0-.45,3.39c0,.38,0,.76,0,1.14a.27.27,0,0,0,.19.26c.21.07.43.15.65.21a14.94,14.94,0,0,0,3,.47l.86.06c.81.07,1.63.05,2.44,0a1.1,1.1,0,0,0,.54-.16c.09,0,.16-.11.24-.16a5.4,5.4,0,0,1,2.93-.81l.68,0a.28.28,0,0,0,.27-.17c.09-.19.16-.39.24-.58.8-2.16,1.66-4.28,2.59-6.39q2.09-4.74,4.57-9.3a4.63,4.63,0,0,0,.39-.77M64.7,93h0c0-.63,0-1.26.07-1.88.08-2.13,0-4.25-.12-6.38a2.22,2.22,0,0,0-.1-.67s0,0,0,0-.09,0-.11,0c-.13.18-.26.37-.38.56q-2.33,3.83-4.34,7.81c-.07.14-.13.28-.2.41a.5.5,0,0,0,0,.49c.23.41.44.84.67,1.25q1.91,3.34,3.82,6.67a.94.94,0,0,0,.16.23s.07,0,.1,0a0,0,0,0,0,0,0,.93.93,0,0,0,0-.23c.07-1.28.14-2.57.2-3.86.06-1.46.12-2.92.19-4.38m96.19-.38a1.82,1.82,0,0,0-.19-.14,10.34,10.34,0,0,1-1.1-.71s-.1-.08-.15-.08-.13,0-.15,0a2.43,2.43,0,0,0-.2.35c-.23.43-.44.88-.69,1.31A19.67,19.67,0,0,1,153.46,99l-.3.27a.18.18,0,0,0,0,.21l.21.19,1.55,1.34,2.91,2.65c.49.45,1,.9,1.48,1.34l.31.25s.13,0,.14-.06,0-.26.06-.39c0-.45,0-.91,0-1.37,0-.74.08-.53-.34-1.08a5.8,5.8,0,0,1-1-1.92,4.89,4.89,0,0,1,0-2.81,4.83,4.83,0,0,1,1.62-2.37l.4-.31a.46.46,0,0,0,.19-.34c0-.57.09-1.13.13-1.7,0-.11,0-.23,0-.34m-40.82,7.83c0,.38.07.77.11,1.17a4.2,4.2,0,0,0,.56,1.72,9.32,9.32,0,0,0,.83,1.15.29.29,0,0,0,.41.06,3.69,3.69,0,0,0,1-.71,11.78,11.78,0,0,0,2.32-3.15,5.81,5.81,0,0,0,.48-1.28,2.89,2.89,0,0,0,.07-1.24c0-.11,0-.23,0-.34-.05-.32-.11-.63-.17-1,0,0-.1-.09-.14-.06a.93.93,0,0,0-.19.11l-.71.58a5,5,0,0,1-1.86.94,3.92,3.92,0,0,1-1.13.17l-.62-.06-.45-.05a.21.21,0,0,0-.18.12,1.64,1.64,0,0,0-.1.38c-.06.47-.1.94-.14,1.44M72.4,144.76c0-.1,0-.22-.05-.32s-.2.16-.27.26-.2.32-.3.48a20.07,20.07,0,0,1-4.67,5.18l-.26.22a.15.15,0,0,0,0,.16c.11.1.21.22.32.31,1.37,1.18,2.71,2.39,4,3.62l.34.3.15.08s.13,0,.13-.05,0-.19,0-.28c0-.31,0-.61,0-.91,0-1.54.07-3.08.19-4.62.06-.75.1-1.51.15-2.27,0-.17,0-.34,0-.51.05-.55.1-1.1.16-1.65m74.17,11.36a.27.27,0,0,0-.12.23c0,.44-.11.87-.15,1.31l-.15,1.53-.21,2.27c-.05.62-.1,1.25-.14,1.87s-.06,1.06-.09,1.59a.86.86,0,0,0,0,.17l0,0s0,0,0,0a2,2,0,0,0,.14-.25c.35-.9.69-1.8,1-2.71s.67-1.77,1-2.68l.15-.55a.35.35,0,0,0-.07-.32c-.12-.14-.24-.29-.37-.43a4.44,4.44,0,0,1-.94-1.68.75.75,0,0,0-.17-.36" transform="translate(-3.27 -13.31)"/><text class="cls-2" transform="translate(12.23 101.47)">Explore</text><text class="cls-3" transform="translate(49.36 128.08)">Arusha</text><path class="cls-4" d="M31.28,64.82c5.21-1.89,9.26-5.24,13-8s7.41-5.73,11.63-8.36c.26-.16.88,0,.82.2A14.87,14.87,0,0,1,55.49,52c-1,2,1,4.18,2.76,3a57.34,57.34,0,0,1,5.94-3.5,2.79,2.79,0,0,1,2.69.3c3.7,2.92,4.86,6.71,7.23,10a26,26,0,0,0,6.36,5.9,26,26,0,0,1,2.7,2.1,1.85,1.85,0,0,0,2.91-.5c4.46-7.43,4.83-15.9,13-22.34a.69.69,0,0,1,.66-.1,21.5,21.5,0,0,1,8.38,6.5c2.46,3.28,1,7.06,4.46,10.13,1.66,1.48,3.69,2.79,5.37,4.25a16.81,16.81,0,0,1,3.41,4.18c1.13,1.86,2.08,3.76,3.25,5.61s3.51.88,3.6-1.25c.19-5-.66-9.94.87-14.84.06-.18.46-.26.71-.17a22.58,22.58,0,0,1,4.37,2.19c1.53.94,3.34-.7,2.85-2.61-1.09-4.27-3.65-8.4-5.28-12.65-.08-.22.34-.46.71-.31,11.2,4.51,18.14,11.54,28.25,16.73C169.2,69,176.8,74,185.94,77.91c1.93.82,3.54-1.85,2.19-3.63-1.76-2.33-3.66-4.63-5.21-7a2,2,0,0,0-.58-.59C159,51.18,136.85,35.23,123.05,22.4a1.8,1.8,0,0,0-2.22-.21A12.45,12.45,0,0,1,116.71,24a13.24,13.24,0,0,1-5.74-.18,11.83,11.83,0,0,0-6.11.08,14.25,14.25,0,0,1-2.79.71c-4.5.45-7.6-2.11-12.12-.89a6.68,6.68,0,0,1-3.93,0,9.79,9.79,0,0,0-9.58,2c-12,10.52-28.77,22.82-46.88,35.11-2,1.38-.64,4.92,1.61,4.11Z" transform="translate(-3.27 -13.31)"/></svg>